{
    "asset" : {
        "generator" : "Khronos glTF Blender I/O v3.3.32",
        "version" : "2.0"
    },
    "extensionsUsed" : [
        "KHR_materials_specular",
        "KHR_materials_ior"
    ],
    "scene" : 0,
    "scenes" : [
        {
            "name" : "Scene",
            "nodes" : [
                0,
                1
            ]
        }
    ],
    "nodes" : [
        {
            "mesh" : 0,
            "name" : "11535_arm_V3_",
            "rotation" : [
                -0.09966069459915161,
                -0.21976323425769806,
                0.20284715294837952,
                0.9490126371383667
            ],
            "scale" : [
                0.06333187967538834,
                0.06333188712596893,
                0.06333187967538834
            ],
            "translation" : [
                0,
                1.5463368892669678,
                0
            ]
        },
        {
            "mesh" : 1,
            "name" : "Text",
            "rotation" : [
                0.7071068286895752,
                0,
                0,
                0.7071068286895752
            ],
            "translation" : [
                -1.1790006160736084,
                -1.6799488067626953,
                -0.1649361401796341
            ]
        }
    ],
    "materials" : [
        {
            "doubleSided" : true,
            "extensions" : {
                "KHR_materials_specular" : {
                    "specularColorFactor" : [
                        0,
                        0,
                        0
                    ]
                },
                "KHR_materials_ior" : {
                    "ior" : 1.4500000476837158
                }
            },
            "name" : "_11535_arm_V3_FINALdefault",
            "pbrMetallicRoughness" : {
                "baseColorFactor" : [
                    0.7991025447845459,
                    0.5209950804710388,
                    0.35640019178390503,
                    1
                ],
                "metallicFactor" : 0
            }
        },
        {
            "doubleSided" : true,
            "name" : "Material.007",
            "pbrMetallicRoughness" : {
                "baseColorFactor" : [
                    0.21962133049964905,
                    0.8000000715255737,
                    0,
                    1
                ],
                "metallicFactor" : 0,
                "roughnessFactor" : 0.5
            }
        }
    ],
    "meshes" : [
        {
            "name" : "11535_arm_V3_",
            "primitives" : [
                {
                    "attributes" : {
                        "POSITION" : 0,
                        "NORMAL" : 1,
                        "TEXCOORD_0" : 2
                    },
                    "indices" : 3,
                    "material" : 0
                }
            ]
        },
        {
            "name" : "Text",
            "primitives" : [
                {
                    "attributes" : {
                        "POSITION" : 4,
                        "NORMAL" : 5,
                        "TEXCOORD_0" : 6
                    },
                    "indices" : 7,
                    "material" : 1
                }
            ]
        }
    ],
    "accessors" : [
        {
            "bufferView" : 0,
            "componentType" : 5126,
            "count" : 50520,
            "max" : [
                11.437299728393555,
                34.30339813232422,
                9.458499908447266
            ],
            "min" : [
                -13.0871000289917,
                -34.347900390625,
                -13.263799667358398
            ],
            "type" : "VEC3"
        },
        {
            "bufferView" : 1,
            "componentType" : 5126,
            "count" : 50520,
            "type" : "VEC3"
        },
        {
            "bufferView" : 2,
            "componentType" : 5126,
            "count" : 50520,
            "type" : "VEC2"
        },
        {
            "bufferView" : 3,
            "componentType" : 5123,
            "count" : 295872,
            "type" : "SCALAR"
        },
        {
            "bufferView" : 4,
            "componentType" : 5126,
            "count" : 4616,
            "max" : [
                3.5320000648498535,
                0.09999999403953552,
                0.34550002217292786
            ],
            "min" : [
                -0.9050000309944153,
                -0.09999999403953552,
                -0.34550002217292786
            ],
            "type" : "VEC3"
        },
        {
            "bufferView" : 5,
            "componentType" : 5126,
            "count" : 4616,
            "type" : "VEC3"
        },
        {
            "bufferView" : 6,
            "componentType" : 5126,
            "count" : 4616,
            "type" : "VEC2"
        },
        {
            "bufferView" : 7,
            "componentType" : 5123,
            "count" : 8328,
            "type" : "SCALAR"
        }
    ],
    "bufferViews" : [
        {
            "buffer" : 0,
            "byteLength" : 606240,
            "byteOffset" : 0,
            "target" : 34962
        },
        {
            "buffer" : 0,
            "byteLength" : 606240,
            "byteOffset" : 606240,
            "target" : 34962
        },
        {
            "buffer" : 0,
            "byteLength" : 404160,
            "byteOffset" : 1212480,
            "target" : 34962
        },
        {
            "buffer" : 0,
            "byteLength" : 591744,
            "byteOffset" : 1616640,
            "target" : 34963
        },
        {
            "buffer" : 0,
            "byteLength" : 55392,
            "byteOffset" : 2208384,
            "target" : 34962
        },
        {
            "buffer" : 0,
            "byteLength" : 55392,
            "byteOffset" : 2263776,
            "target" : 34962
        },
        {
            "buffer" : 0,
            "byteLength" : 36928,
            "byteOffset" : 2319168,
            "target" : 34962
        },
        {
            "buffer" : 0,
            "byteLength" : 16656,
            "byteOffset" : 2356096,
            "target" : 34963
        }
    ],
    "buffers" : [
        {
            "byteLength" : 2372752,
            "uri" : "data:application/octet-stream;base64,"
        }
    ]
}
