{
    "asset" : {
        "generator" : "Khronos glTF Blender I/O v3.3.27",
        "version" : "2.0"
    },
    "scene" : 0,
    "scenes" : [
        {
            "name" : "Scene",
            "nodes" : [
                0,
                1,
                2,
                3,
                4,
                5,
                6
            ]
        }
    ],
    "nodes" : [
        {
            "name" : "SubTool-0-3517926",
            "rotation" : [
                0.7071068286895752,
                0,
                0,
                0.7071067094802856
            ],
            "translation" : [
                3.119394063949585,
                2.703390598297119,
                0
            ]
        },
        {
            "mesh" : 0,
            "name" : "SubTool-0-3517926.001",
            "rotation" : [
                0.7071068286895752,
                0,
                0,
                0.7071067094802856
            ],
            "translation" : [
                3.119394063949585,
                2.703390598297119,
                0
            ]
        },
        {
            "mesh" : 1,
            "name" : "Cylinder",
            "scale" : [
                0.13358378410339355,
                0.7142069935798645,
                0.13358378410339355
            ],
            "translation" : [
                2.3530969619750977,
                4.218910217285156,
                0.19390110671520233
            ]
        },
        {
            "mesh" : 2,
            "name" : "Cylinder.001",
            "rotation" : [
                1,
                0,
                0,
                0
            ],
            "scale" : [
                0.09710492193698883,
                0.5191724300384521,
                0.09710492193698883
            ],
            "translation" : [
                2.3574295043945312,
                4.2531843185424805,
                -0.3590603172779083
            ]
        },
        {
            "mesh" : 3,
            "name" : "SubTool-0-3517926.002",
            "rotation" : [
                0.7071068286895752,
                0,
                0,
                0.7071067094802856
            ],
            "translation" : [
                2.1816704273223877,
                3.545534372329712,
                -0.07533611357212067
            ]
        },
        {
            "mesh" : 4,
            "name" : "Sphere",
            "rotation" : [
                0.3155946135520935,
                0,
                0,
                0.9488941431045532
            ],
            "scale" : [
                0.12500502169132233,
                0.29895734786987305,
                0.1433168202638626
            ],
            "translation" : [
                2.3508193492889404,
                3.8801581859588623,
                0.08763812482357025
            ]
        },
        {
            "mesh" : 5,
            "name" : "Sphere.001",
            "rotation" : [
                -0.9784226417541504,
                0,
                0,
                0.2066139280796051
            ],
            "scale" : [
                0.09598533064126968,
                0.2295549213886261,
                0.11004608124494553
            ],
            "translation" : [
                2.3508193492889404,
                4.383782863616943,
                -0.3222365379333496
            ]
        }
    ],
    "animations" : [
        {
            "channels" : [
                {
                    "sampler" : 0,
                    "target" : {
                        "node" : 4,
                        "path" : "rotation"
                    }
                }
            ],
            "name" : "SubTool-0-3517926.002Action",
            "samplers" : [
                {
                    "input" : 21,
                    "interpolation" : "LINEAR",
                    "output" : 22
                }
            ]
        },
        {
            "channels" : [
                {
                    "sampler" : 0,
                    "target" : {
                        "node" : 5,
                        "path" : "translation"
                    }
                },
                {
                    "sampler" : 1,
                    "target" : {
                        "node" : 5,
                        "path" : "rotation"
                    }
                }
            ],
            "name" : "SphereAction",
            "samplers" : [
                {
                    "input" : 23,
                    "interpolation" : "LINEAR",
                    "output" : 24
                },
                {
                    "input" : 23,
                    "interpolation" : "LINEAR",
                    "output" : 25
                }
            ]
        },
        {
            "channels" : [
                {
                    "sampler" : 0,
                    "target" : {
                        "node" : 6,
                        "path" : "translation"
                    }
                },
                {
                    "sampler" : 1,
                    "target" : {
                        "node" : 6,
                        "path" : "rotation"
                    }
                }
            ],
            "name" : "Sphere.001Action.001",
            "samplers" : [
                {
                    "input" : 23,
                    "interpolation" : "LINEAR",
                    "output" : 26
                },
                {
                    "input" : 23,
                    "interpolation" : "LINEAR",
                    "output" : 27
                }
            ]
        }
    ],
    "materials" : [
        {
            "doubleSided" : true,
            "name" : "Material",
            "pbrMetallicRoughness" : {
                "baseColorFactor" : [
                    0.800000011920929,
                    0.800000011920929,
                    0.800000011920929,
                    1
                ],
                "metallicFactor" : 0,
                "roughnessFactor" : 0.5
            }
        },
        {
            "doubleSided" : true,
            "name" : "Material.001",
            "pbrMetallicRoughness" : {
                "baseColorFactor" : [
                    0.8000000715255737,
                    0.016841107979416847,
                    0,
                    1
                ],
                "metallicFactor" : 0,
                "roughnessFactor" : 0.5
            }
        }
    ],
    "meshes" : [
        {
            "name" : "SubTool-0-3517926.001",
            "primitives" : [
                {
                    "attributes" : {
                        "POSITION" : 0,
                        "NORMAL" : 1
                    },
                    "indices" : 2,
                    "material" : 0
                }
            ]
        },
        {
            "name" : "Cylinder",
            "primitives" : [
                {
                    "attributes" : {
                        "POSITION" : 3,
                        "NORMAL" : 4,
                        "TEXCOORD_0" : 5
                    },
                    "indices" : 6,
                    "material" : 1
                }
            ]
        },
        {
            "name" : "Cylinder.001",
            "primitives" : [
                {
                    "attributes" : {
                        "POSITION" : 7,
                        "NORMAL" : 8,
                        "TEXCOORD_0" : 9
                    },
                    "indices" : 10,
                    "material" : 1
                }
            ]
        },
        {
            "name" : "SubTool-0-3517926.002",
            "primitives" : [
                {
                    "attributes" : {
                        "POSITION" : 11,
                        "NORMAL" : 12
                    },
                    "indices" : 13,
                    "material" : 0
                }
            ]
        },
        {
            "name" : "Sphere",
            "primitives" : [
                {
                    "attributes" : {
                        "POSITION" : 14,
                        "NORMAL" : 15,
                        "TEXCOORD_0" : 16
                    },
                    "indices" : 17,
                    "material" : 1
                }
            ]
        },
        {
            "name" : "Sphere.001",
            "primitives" : [
                {
                    "attributes" : {
                        "POSITION" : 18,
                        "NORMAL" : 19,
                        "TEXCOORD_0" : 20
                    },
                    "indices" : 17,
                    "material" : 1
                }
            ]
        }
    ],
    "accessors" : [
        {
            "bufferView" : 0,
            "componentType" : 5126,
            "count" : 38184,
            "max" : [
                -0.05658312886953354,
                0.16789740324020386,
                -0.7457639575004578
            ],
            "min" : [
                -0.938409149646759,
                -0.4091132879257202,
                -2.4080164432525635
            ],
            "type" : "VEC3"
        },
        {
            "bufferView" : 1,
            "componentType" : 5126,
            "count" : 38184,
            "type" : "VEC3"
        },
        {
            "bufferView" : 2,
            "componentType" : 5123,
            "count" : 38184,
            "type" : "SCALAR"
        },
        {
            "bufferView" : 3,
            "componentType" : 5126,
            "count" : 1095,
            "max" : [
                1.1137601137161255,
                0.9418725371360779,
                0.29035240411758423
            ],
            "min" : [
                -1.1137624979019165,
                -1.0375670194625854,
                -2.293726682662964
            ],
            "type" : "VEC3"
        },
        {
            "bufferView" : 4,
            "componentType" : 5126,
            "count" : 1095,
            "type" : "VEC3"
        },
        {
            "bufferView" : 5,
            "componentType" : 5126,
            "count" : 1095,
            "type" : "VEC2"
        },
        {
            "bufferView" : 6,
            "componentType" : 5123,
            "count" : 5364,
            "type" : "SCALAR"
        },
        {
            "bufferView" : 7,
            "componentType" : 5126,
            "count" : 1063,
            "max" : [
                1.4713917970657349,
                1.341916561126709,
                0.217997744679451
            ],
            "min" : [
                -1.4713953733444214,
                -1.0820304155349731,
                -2.596780776977539
            ],
            "type" : "VEC3"
        },
        {
            "bufferView" : 8,
            "componentType" : 5126,
            "count" : 1063,
            "type" : "VEC3"
        },
        {
            "bufferView" : 9,
            "componentType" : 5126,
            "count" : 1063,
            "type" : "VEC2"
        },
        {
            "bufferView" : 10,
            "componentType" : 5123,
            "count" : 5364,
            "type" : "SCALAR"
        },
        {
            "bufferView" : 11,
            "componentType" : 5126,
            "count" : 38880,
            "max" : [
                0.3394966125488281,
                0.2291865348815918,
                1.6746642589569092
            ],
            "min" : [
                0.004348397254943848,
                -0.16038477420806885,
                -0.07886701822280884
            ],
            "type" : "VEC3"
        },
        {
            "bufferView" : 12,
            "componentType" : 5126,
            "count" : 38880,
            "type" : "VEC3"
        },
        {
            "bufferView" : 13,
            "componentType" : 5123,
            "count" : 38880,
            "type" : "SCALAR"
        },
        {
            "bufferView" : 14,
            "componentType" : 5126,
            "count" : 559,
            "max" : [
                0.9999997019767761,
                0.9159088730812073,
                0.6738764047622681
            ],
            "min" : [
                -0.9999990463256836,
                -0.9657632112503052,
                -0.7963539958000183
            ],
            "type" : "VEC3"
        },
        {
            "bufferView" : 15,
            "componentType" : 5126,
            "count" : 559,
            "type" : "VEC3"
        },
        {
            "bufferView" : 16,
            "componentType" : 5126,
            "count" : 559,
            "type" : "VEC2"
        },
        {
            "bufferView" : 17,
            "componentType" : 5123,
            "count" : 2880,
            "type" : "SCALAR"
        },
        {
            "bufferView" : 18,
            "componentType" : 5126,
            "count" : 559,
            "max" : [
                0.9999997019767761,
                0.9159088730812073,
                0.6738764047622681
            ],
            "min" : [
                -0.9999990463256836,
                -0.9657632112503052,
                -0.7963539958000183
            ],
            "type" : "VEC3"
        },
        {
            "bufferView" : 19,
            "componentType" : 5126,
            "count" : 559,
            "type" : "VEC3"
        },
        {
            "bufferView" : 20,
            "componentType" : 5126,
            "count" : 559,
            "type" : "VEC2"
        },
        {
            "bufferView" : 21,
            "componentType" : 5126,
            "count" : 199,
            "max" : [
                8.291666666666666
            ],
            "min" : [
                0.041666666666666664
            ],
            "type" : "SCALAR"
        },
        {
            "bufferView" : 22,
            "componentType" : 5126,
            "count" : 199,
            "type" : "VEC4"
        },
        {
            "bufferView" : 23,
            "componentType" : 5126,
            "count" : 201,
            "max" : [
                8.333333333333334
            ],
            "min" : [
                0
            ],
            "type" : "SCALAR"
        },
        {
            "bufferView" : 24,
            "componentType" : 5126,
            "count" : 201,
            "type" : "VEC3"
        },
        {
            "bufferView" : 25,
            "componentType" : 5126,
            "count" : 201,
            "type" : "VEC4"
        },
        {
            "bufferView" : 26,
            "componentType" : 5126,
            "count" : 201,
            "type" : "VEC3"
        },
        {
            "bufferView" : 27,
            "componentType" : 5126,
            "count" : 201,
            "type" : "VEC4"
        }
    ],
    "bufferViews" : [
        {
            "buffer" : 0,
            "byteLength" : 458208,
            "byteOffset" : 0,
            "target" : 34962
        },
        {
            "buffer" : 0,
            "byteLength" : 458208,
            "byteOffset" : 458208,
            "target" : 34962
        },
        {
            "buffer" : 0,
            "byteLength" : 76368,
            "byteOffset" : 916416,
            "target" : 34963
        },
        {
            "buffer" : 0,
            "byteLength" : 13140,
            "byteOffset" : 992784,
            "target" : 34962
        },
        {
            "buffer" : 0,
            "byteLength" : 13140,
            "byteOffset" : 1005924,
            "target" : 34962
        },
        {
            "buffer" : 0,
            "byteLength" : 8760,
            "byteOffset" : 1019064,
            "target" : 34962
        },
        {
            "buffer" : 0,
            "byteLength" : 10728,
            "byteOffset" : 1027824,
            "target" : 34963
        },
        {
            "buffer" : 0,
            "byteLength" : 12756,
            "byteOffset" : 1038552,
            "target" : 34962
        },
        {
            "buffer" : 0,
            "byteLength" : 12756,
            "byteOffset" : 1051308,
            "target" : 34962
        },
        {
            "buffer" : 0,
            "byteLength" : 8504,
            "byteOffset" : 1064064,
            "target" : 34962
        },
        {
            "buffer" : 0,
            "byteLength" : 10728,
            "byteOffset" : 1072568,
            "target" : 34963
        },
        {
            "buffer" : 0,
            "byteLength" : 466560,
            "byteOffset" : 1083296,
            "target" : 34962
        },
        {
            "buffer" : 0,
            "byteLength" : 466560,
            "byteOffset" : 1549856,
            "target" : 34962
        },
        {
            "buffer" : 0,
            "byteLength" : 77760,
            "byteOffset" : 2016416,
            "target" : 34963
        },
        {
            "buffer" : 0,
            "byteLength" : 6708,
            "byteOffset" : 2094176,
            "target" : 34962
        },
        {
            "buffer" : 0,
            "byteLength" : 6708,
            "byteOffset" : 2100884,
            "target" : 34962
        },
        {
            "buffer" : 0,
            "byteLength" : 4472,
            "byteOffset" : 2107592,
            "target" : 34962
        },
        {
            "buffer" : 0,
            "byteLength" : 5760,
            "byteOffset" : 2112064,
            "target" : 34963
        },
        {
            "buffer" : 0,
            "byteLength" : 6708,
            "byteOffset" : 2117824,
            "target" : 34962
        },
        {
            "buffer" : 0,
            "byteLength" : 6708,
            "byteOffset" : 2124532,
            "target" : 34962
        },
        {
            "buffer" : 0,
            "byteLength" : 4472,
            "byteOffset" : 2131240,
            "target" : 34962
        },
        {
            "buffer" : 0,
            "byteLength" : 796,
            "byteOffset" : 2135712
        },
        {
            "buffer" : 0,
            "byteLength" : 3184,
            "byteOffset" : 2136508
        },
        {
            "buffer" : 0,
            "byteLength" : 804,
            "byteOffset" : 2139692
        },
        {
            "buffer" : 0,
            "byteLength" : 2412,
            "byteOffset" : 2140496
        },
        {
            "buffer" : 0,
            "byteLength" : 3216,
            "byteOffset" : 2142908
        },
        {
            "buffer" : 0,
            "byteLength" : 2412,
            "byteOffset" : 2146124
        },
        {
            "buffer" : 0,
            "byteLength" : 3216,
            "byteOffset" : 2148536
        }
    ],
    "buffers" : [
        {
            "byteLength" : 2151752,
            "uri" : "data:application/octet-stream;base64,"
        }
    ]
}
