{
    "asset" : {
        "generator" : "Khronos glTF Blender I/O v3.3.27",
        "version" : "2.0"
    },
    "scene" : 0,
    "scenes" : [
        {
            "name" : "Scene",
            "nodes" : [
                0,
                1
            ]
        }
    ],
    "nodes" : [
        {
            "mesh" : 0,
            "name" : "Cube",
            "scale" : [
                0.8633055686950684,
                1.7798283100128174,
                0.8633055686950684
            ],
            "translation" : [
                -2.08599853515625,
                -0.035941123962402344,
                0.003859877586364746
            ]
        },
        {
            "mesh" : 1,
            "name" : "Cylinder.002",
            "scale" : [
                1,
                1.6850119829177856,
                1
            ],
            "translation" : [
                2.08599853515625,
                0.035941123962402344,
                -0.003859877586364746
            ]
        }
    ],
    "materials" : [
        {
            "doubleSided" : true,
            "name" : "Material.005",
            "pbrMetallicRoughness" : {
                "baseColorFactor" : [
                    0.1011347621679306,
                    0.054470062255859375,
                    0.038946136832237244,
                    1
                ],
                "metallicFactor" : 0.8222222328186035,
                "roughnessFactor" : 0.2888888716697693
            }
        },
        {
            "doubleSided" : true,
            "name" : "Material.006",
            "pbrMetallicRoughness" : {
                "baseColorFactor" : [
                    0.23736229538917542,
                    0.23736229538917542,
                    0.23736229538917542,
                    1
                ],
                "metallicFactor" : 0,
                "roughnessFactor" : 0.5
            }
        },
        {
            "doubleSided" : true,
            "name" : "Material.008",
            "pbrMetallicRoughness" : {
                "baseColorTexture" : {
                    "index" : 0
                },
                "metallicFactor" : 0,
                "roughnessFactor" : 0.5
            }
        },
        {
            "doubleSided" : true,
            "name" : "Material.009",
            "pbrMetallicRoughness" : {
                "baseColorFactor" : [
                    0.037470199167728424,
                    0.06636660546064377,
                    0.8000000715255737,
                    1
                ],
                "metallicFactor" : 0,
                "roughnessFactor" : 0.5
            }
        },
        {
            "doubleSided" : true,
            "name" : "Material.010",
            "pbrMetallicRoughness" : {
                "baseColorFactor" : [
                    0.09347806870937347,
                    0.11479310691356659,
                    0,
                    1
                ],
                "metallicFactor" : 0,
                "roughnessFactor" : 0.5
            }
        }
    ],
    "meshes" : [
        {
            "name" : "Cube",
            "primitives" : [
                {
                    "attributes" : {
                        "POSITION" : 0,
                        "NORMAL" : 1,
                        "TEXCOORD_0" : 2
                    },
                    "indices" : 3,
                    "material" : 0
                },
                {
                    "attributes" : {
                        "POSITION" : 4,
                        "NORMAL" : 5,
                        "TEXCOORD_0" : 6
                    },
                    "indices" : 7,
                    "material" : 1
                },
                {
                    "attributes" : {
                        "POSITION" : 8,
                        "NORMAL" : 9,
                        "TEXCOORD_0" : 10
                    },
                    "indices" : 11,
                    "material" : 2
                }
            ]
        },
        {
            "name" : "Cylinder.003",
            "primitives" : [
                {
                    "attributes" : {
                        "POSITION" : 12,
                        "NORMAL" : 13,
                        "TEXCOORD_0" : 14
                    },
                    "indices" : 15,
                    "material" : 3
                },
                {
                    "attributes" : {
                        "POSITION" : 16,
                        "NORMAL" : 17,
                        "TEXCOORD_0" : 18
                    },
                    "indices" : 19,
                    "material" : 4
                }
            ]
        }
    ],
    "textures" : [
        {
            "sampler" : 0,
            "source" : 0
        }
    ],
    "images" : [
        {
            "bufferView" : 12,
            "mimeType" : "image/png",
            "name" : "capsule-pill-icon-cartoon-illustration-260nw-544354015"
        }
    ],
    "accessors" : [
        {
            "bufferView" : 0,
            "componentType" : 5126,
            "count" : 425,
            "max" : [
                1,
                1.143748164176941,
                1
            ],
            "min" : [
                -1,
                -1,
                -1
            ],
            "type" : "VEC3"
        },
        {
            "bufferView" : 1,
            "componentType" : 5126,
            "count" : 425,
            "type" : "VEC3"
        },
        {
            "bufferView" : 2,
            "componentType" : 5126,
            "count" : 425,
            "type" : "VEC2"
        },
        {
            "bufferView" : 3,
            "componentType" : 5123,
            "count" : 1884,
            "type" : "SCALAR"
        },
        {
            "bufferView" : 4,
            "componentType" : 5126,
            "count" : 130,
            "max" : [
                0.7992145419120789,
                1.433478832244873,
                0.7545013427734375
            ],
            "min" : [
                -0.782220184803009,
                1.0358314514160156,
                -0.8269333839416504
            ],
            "type" : "VEC3"
        },
        {
            "bufferView" : 5,
            "componentType" : 5126,
            "count" : 130,
            "type" : "VEC3"
        },
        {
            "bufferView" : 6,
            "componentType" : 5126,
            "count" : 130,
            "type" : "VEC2"
        },
        {
            "bufferView" : 7,
            "componentType" : 5123,
            "count" : 372,
            "type" : "SCALAR"
        },
        {
            "bufferView" : 8,
            "componentType" : 5126,
            "count" : 4,
            "max" : [
                0.6482056975364685,
                0.28280526399612427,
                1.0287282466888428
            ],
            "min" : [
                -0.600746214389801,
                -0.27271777391433716,
                1.0287282466888428
            ],
            "type" : "VEC3"
        },
        {
            "bufferView" : 9,
            "componentType" : 5126,
            "count" : 4,
            "type" : "VEC3"
        },
        {
            "bufferView" : 10,
            "componentType" : 5126,
            "count" : 4,
            "type" : "VEC2"
        },
        {
            "bufferView" : 11,
            "componentType" : 5123,
            "count" : 6,
            "type" : "SCALAR"
        },
        {
            "bufferView" : 13,
            "componentType" : 5126,
            "count" : 2942,
            "max" : [
                1,
                1.4656529426574707,
                1
            ],
            "min" : [
                -1,
                -1.1458625793457031,
                -1
            ],
            "type" : "VEC3"
        },
        {
            "bufferView" : 14,
            "componentType" : 5126,
            "count" : 2942,
            "type" : "VEC3"
        },
        {
            "bufferView" : 15,
            "componentType" : 5126,
            "count" : 2942,
            "type" : "VEC2"
        },
        {
            "bufferView" : 16,
            "componentType" : 5123,
            "count" : 6132,
            "type" : "SCALAR"
        },
        {
            "bufferView" : 17,
            "componentType" : 5126,
            "count" : 130,
            "max" : [
                0.40550386905670166,
                1.7085795402526855,
                0.3967985212802887
            ],
            "min" : [
                -0.4017670750617981,
                1.4554606676101685,
                -0.41047242283821106
            ],
            "type" : "VEC3"
        },
        {
            "bufferView" : 18,
            "componentType" : 5126,
            "count" : 130,
            "type" : "VEC3"
        },
        {
            "bufferView" : 19,
            "componentType" : 5126,
            "count" : 130,
            "type" : "VEC2"
        },
        {
            "bufferView" : 20,
            "componentType" : 5123,
            "count" : 372,
            "type" : "SCALAR"
        }
    ],
    "bufferViews" : [
        {
            "buffer" : 0,
            "byteLength" : 5100,
            "byteOffset" : 0,
            "target" : 34962
        },
        {
            "buffer" : 0,
            "byteLength" : 5100,
            "byteOffset" : 5100,
            "target" : 34962
        },
        {
            "buffer" : 0,
            "byteLength" : 3400,
            "byteOffset" : 10200,
            "target" : 34962
        },
        {
            "buffer" : 0,
            "byteLength" : 3768,
            "byteOffset" : 13600,
            "target" : 34963
        },
        {
            "buffer" : 0,
            "byteLength" : 1560,
            "byteOffset" : 17368,
            "target" : 34962
        },
        {
            "buffer" : 0,
            "byteLength" : 1560,
            "byteOffset" : 18928,
            "target" : 34962
        },
        {
            "buffer" : 0,
            "byteLength" : 1040,
            "byteOffset" : 20488,
            "target" : 34962
        },
        {
            "buffer" : 0,
            "byteLength" : 744,
            "byteOffset" : 21528,
            "target" : 34963
        },
        {
            "buffer" : 0,
            "byteLength" : 48,
            "byteOffset" : 22272,
            "target" : 34962
        },
        {
            "buffer" : 0,
            "byteLength" : 48,
            "byteOffset" : 22320,
            "target" : 34962
        },
        {
            "buffer" : 0,
            "byteLength" : 32,
            "byteOffset" : 22368,
            "target" : 34962
        },
        {
            "buffer" : 0,
            "byteLength" : 12,
            "byteOffset" : 22400,
            "target" : 34963
        },
        {
            "buffer" : 0,
            "byteLength" : 20619,
            "byteOffset" : 22412
        },
        {
            "buffer" : 0,
            "byteLength" : 35304,
            "byteOffset" : 43032,
            "target" : 34962
        },
        {
            "buffer" : 0,
            "byteLength" : 35304,
            "byteOffset" : 78336,
            "target" : 34962
        },
        {
            "buffer" : 0,
            "byteLength" : 23536,
            "byteOffset" : 113640,
            "target" : 34962
        },
        {
            "buffer" : 0,
            "byteLength" : 12264,
            "byteOffset" : 137176,
            "target" : 34963
        },
        {
            "buffer" : 0,
            "byteLength" : 1560,
            "byteOffset" : 149440,
            "target" : 34962
        },
        {
            "buffer" : 0,
            "byteLength" : 1560,
            "byteOffset" : 151000,
            "target" : 34962
        },
        {
            "buffer" : 0,
            "byteLength" : 1040,
            "byteOffset" : 152560,
            "target" : 34962
        },
        {
            "buffer" : 0,
            "byteLength" : 744,
            "byteOffset" : 153600,
            "target" : 34963
        }
    ],
    "samplers" : [
        {
            "magFilter" : 9729,
            "minFilter" : 9987
        }
    ],
    "buffers" : [
        {
            "byteLength" : 154344,
            "uri" : "data:application/octet-stream;base64,"
        }
    ]
}
