{
    "asset" : {
        "generator" : "Khronos glTF Blender I/O v3.3.32",
        "version" : "2.0"
    },
    "scene" : 0,
    "scenes" : [
        {
            "name" : "Scene",
            "nodes" : [
                0,
                1
            ]
        }
    ],
    "nodes" : [
        {
            "mesh" : 0,
            "name" : "Plane",
            "rotation" : [
                0.7071066498756409,
                0,
                0,
                0.70710688829422
            ],
            "scale" : [
                0.2808696925640106,
                0.19312021136283875,
                0.2808696925640106
            ],
            "translation" : [
                0.2168508619070053,
                1.0637109279632568,
                0
            ]
        },
        {
            "mesh" : 1,
            "name" : "Text",
            "rotation" : [
                0.7071068286895752,
                0,
                0,
                0.7071068286895752
            ],
            "translation" : [
                -0.43112713098526,
                -1.1363272666931152,
                -0.1649361401796341
            ]
        }
    ],
    "materials" : [
        {
            "doubleSided" : true,
            "name" : "Material.005",
            "pbrMetallicRoughness" : {
                "baseColorFactor" : [
                    0.7991025447845459,
                    0.5209950804710388,
                    0.35640019178390503,
                    1
                ],
                "metallicFactor" : 0,
                "roughnessFactor" : 0.5
            }
        },
        {
            "doubleSided" : true,
            "name" : "Material.007",
            "pbrMetallicRoughness" : {
                "baseColorFactor" : [
                    0.21962133049964905,
                    0.8000000715255737,
                    0,
                    1
                ],
                "metallicFactor" : 0,
                "roughnessFactor" : 0.5
            }
        }
    ],
    "meshes" : [
        {
            "name" : "Mesh",
            "primitives" : [
                {
                    "attributes" : {
                        "POSITION" : 0,
                        "NORMAL" : 1,
                        "TEXCOORD_0" : 2
                    },
                    "indices" : 3,
                    "material" : 0
                }
            ]
        },
        {
            "name" : "Text",
            "primitives" : [
                {
                    "attributes" : {
                        "POSITION" : 4,
                        "NORMAL" : 5,
                        "TEXCOORD_0" : 6
                    },
                    "indices" : 7,
                    "material" : 1
                }
            ]
        }
    ],
    "accessors" : [
        {
            "bufferView" : 0,
            "componentType" : 5126,
            "count" : 21464,
            "max" : [
                2.612682580947876,
                1.530418038368225,
                4.691251277923584
            ],
            "min" : [
                -7.165882587432861,
                -2.7298800945281982,
                -3.771498441696167
            ],
            "type" : "VEC3"
        },
        {
            "bufferView" : 1,
            "componentType" : 5126,
            "count" : 21464,
            "type" : "VEC3"
        },
        {
            "bufferView" : 2,
            "componentType" : 5126,
            "count" : 21464,
            "type" : "VEC2"
        },
        {
            "bufferView" : 3,
            "componentType" : 5123,
            "count" : 116544,
            "type" : "SCALAR"
        },
        {
            "bufferView" : 4,
            "componentType" : 5126,
            "count" : 2198,
            "max" : [
                0.3370000422000885,
                0.09999999403953552,
                0.34550002217292786
            ],
            "min" : [
                -0.925000011920929,
                -0.09999999403953552,
                -0.12150001525878906
            ],
            "type" : "VEC3"
        },
        {
            "bufferView" : 5,
            "componentType" : 5126,
            "count" : 2198,
            "type" : "VEC3"
        },
        {
            "bufferView" : 6,
            "componentType" : 5126,
            "count" : 2198,
            "type" : "VEC2"
        },
        {
            "bufferView" : 7,
            "componentType" : 5123,
            "count" : 3924,
            "type" : "SCALAR"
        }
    ],
    "bufferViews" : [
        {
            "buffer" : 0,
            "byteLength" : 257568,
            "byteOffset" : 0,
            "target" : 34962
        },
        {
            "buffer" : 0,
            "byteLength" : 257568,
            "byteOffset" : 257568,
            "target" : 34962
        },
        {
            "buffer" : 0,
            "byteLength" : 171712,
            "byteOffset" : 515136,
            "target" : 34962
        },
        {
            "buffer" : 0,
            "byteLength" : 233088,
            "byteOffset" : 686848,
            "target" : 34963
        },
        {
            "buffer" : 0,
            "byteLength" : 26376,
            "byteOffset" : 919936,
            "target" : 34962
        },
        {
            "buffer" : 0,
            "byteLength" : 26376,
            "byteOffset" : 946312,
            "target" : 34962
        },
        {
            "buffer" : 0,
            "byteLength" : 17584,
            "byteOffset" : 972688,
            "target" : 34962
        },
        {
            "buffer" : 0,
            "byteLength" : 7848,
            "byteOffset" : 990272,
            "target" : 34963
        }
    ],
    "buffers" : [
        {
            "byteLength" : 998120,
            "uri" : "data:application/octet-stream;base64,"
        }
    ]
}
