{
    "asset" : {
        "generator" : "Khronos glTF Blender I/O v3.3.32",
        "version" : "2.0"
    },
    "extensionsUsed" : [
        "KHR_materials_specular",
        "KHR_materials_ior"
    ],
    "scene" : 0,
    "scenes" : [
        {
            "name" : "Scene",
            "nodes" : [
                0,
                1
            ]
        }
    ],
    "nodes" : [
        {
            "mesh" : 0,
            "name" : "Retopo_Cube",
            "scale" : [
                0.4117419123649597,
                0.4117419123649597,
                0.4117419123649597
            ],
            "translation" : [
                -0.8196727633476257,
                0,
                0
            ]
        },
        {
            "mesh" : 1,
            "name" : "Text",
            "rotation" : [
                0.7071068286895752,
                0,
                0,
                0.7071068286895752
            ],
            "translation" : [
                -0.7113962173461914,
                -1.1363272666931152,
                -0.1649361401796341
            ]
        }
    ],
    "materials" : [
        {
            "doubleSided" : true,
            "extensions" : {
                "KHR_materials_specular" : {
                    "specularColorFactor" : [
                        0.948543059910952,
                        0.948543059910952,
                        0.948543059910952
                    ]
                },
                "KHR_materials_ior" : {
                    "ior" : 1.4500000476837158
                }
            },
            "name" : "Material.002",
            "pbrMetallicRoughness" : {
                "baseColorFactor" : [
                    0.7991025447845459,
                    0.5209950804710388,
                    0.35640019178390503,
                    1
                ],
                "metallicFactor" : 0,
                "roughnessFactor" : 0.5081081390380859
            }
        },
        {
            "doubleSided" : true,
            "name" : "Material.007",
            "pbrMetallicRoughness" : {
                "baseColorFactor" : [
                    0.21962133049964905,
                    0.8000000715255737,
                    0,
                    1
                ],
                "metallicFactor" : 0,
                "roughnessFactor" : 0.5
            }
        }
    ],
    "meshes" : [
        {
            "name" : "mesh",
            "primitives" : [
                {
                    "attributes" : {
                        "POSITION" : 0,
                        "NORMAL" : 1
                    },
                    "indices" : 2,
                    "material" : 0
                }
            ]
        },
        {
            "name" : "Text",
            "primitives" : [
                {
                    "attributes" : {
                        "POSITION" : 3,
                        "NORMAL" : 4,
                        "TEXCOORD_0" : 5
                    },
                    "indices" : 6,
                    "material" : 1
                }
            ]
        }
    ],
    "accessors" : [
        {
            "bufferView" : 0,
            "componentType" : 5126,
            "count" : 3628,
            "max" : [
                1.5493870973587036,
                5.39296817779541,
                3.0349671840667725
            ],
            "min" : [
                -1.5493870973587036,
                -0.0014322232455015182,
                -0.019595608115196228
            ],
            "type" : "VEC3"
        },
        {
            "bufferView" : 1,
            "componentType" : 5126,
            "count" : 3628,
            "type" : "VEC3"
        },
        {
            "bufferView" : 2,
            "componentType" : 5123,
            "count" : 21756,
            "type" : "SCALAR"
        },
        {
            "bufferView" : 3,
            "componentType" : 5126,
            "count" : 2594,
            "max" : [
                0.9170000553131104,
                0.09999999403953552,
                0.34550002217292786
            ],
            "min" : [
                -0.9050000309944153,
                -0.09999999403953552,
                -0.12150001525878906
            ],
            "type" : "VEC3"
        },
        {
            "bufferView" : 4,
            "componentType" : 5126,
            "count" : 2594,
            "type" : "VEC3"
        },
        {
            "bufferView" : 5,
            "componentType" : 5126,
            "count" : 2594,
            "type" : "VEC2"
        },
        {
            "bufferView" : 6,
            "componentType" : 5123,
            "count" : 4608,
            "type" : "SCALAR"
        }
    ],
    "bufferViews" : [
        {
            "buffer" : 0,
            "byteLength" : 43536,
            "byteOffset" : 0,
            "target" : 34962
        },
        {
            "buffer" : 0,
            "byteLength" : 43536,
            "byteOffset" : 43536,
            "target" : 34962
        },
        {
            "buffer" : 0,
            "byteLength" : 43512,
            "byteOffset" : 87072,
            "target" : 34963
        },
        {
            "buffer" : 0,
            "byteLength" : 31128,
            "byteOffset" : 130584,
            "target" : 34962
        },
        {
            "buffer" : 0,
            "byteLength" : 31128,
            "byteOffset" : 161712,
            "target" : 34962
        },
        {
            "buffer" : 0,
            "byteLength" : 20752,
            "byteOffset" : 192840,
            "target" : 34962
        },
        {
            "buffer" : 0,
            "byteLength" : 9216,
            "byteOffset" : 213592,
            "target" : 34963
        }
    ],
    "buffers" : [
        {
            "byteLength" : 222808,
            "uri" : "data:application/octet-stream;base64,"
        }
    ]
}
