{
    "asset" : {
        "generator" : "Khronos glTF Blender I/O v3.4.49",
        "version" : "2.0"
    },
    "scene" : 0,
    "scenes" : [
        {
            "name" : "Scene",
            "nodes" : [
                0,
                1,
                2,
                3
            ]
        }
    ],
    "nodes" : [
        {
            "mesh" : 0,
            "name" : "Plane",
            "rotation" : [
                0,
                0,
                0.6028297543525696,
                0.7978698015213013
            ],
            "scale" : [
                1,
                1,
                3.0646796226501465
            ]
        },
        {
            "name" : "NurbsPath",
            "rotation" : [
                0.2631501853466034,
                0.2631501853466034,
                -0.6563169956207275,
                0.6563169956207275
            ],
            "scale" : [
                0.7146177291870117,
                0.7146177291870117,
                0.7146177291870117
            ],
            "translation" : [
                0.34582042694091797,
                2.0019350051879883,
                0.8040028214454651
            ]
        },
        {
            "name" : "NurbsPath.001",
            "rotation" : [
                0.097744420170784,
                0.097744420170784,
                -0.7003185153007507,
                0.7003185153007507
            ],
            "scale" : [
                0.5186792016029358,
                0.518679141998291,
                0.5186792016029358
            ],
            "translation" : [
                0.34582042694091797,
                0.03436307609081268,
                -0.420227587223053
            ]
        },
        {
            "name" : "NurbsPath.002",
            "rotation" : [
                0.2631502151489258,
                0.2631502151489258,
                -0.6563169956207275,
                0.6563169956207275
            ],
            "scale" : [
                0.6786658763885498,
                0.6786658763885498,
                0.6786658763885498
            ],
            "translation" : [
                0.34582042694091797,
                -1.9439826011657715,
                -1.622570514678955
            ]
        }
    ],
    "materials" : [
        {
            "doubleSided" : true,
            "name" : "Material.001",
            "pbrMetallicRoughness" : {
                "baseColorFactor" : [
                    0,
                    0.15971778333187103,
                    0.8000000715255737,
                    1
                ],
                "metallicFactor" : 0,
                "roughnessFactor" : 0.5
            }
        }
    ],
    "meshes" : [
        {
            "name" : "Plane",
            "primitives" : [
                {
                    "attributes" : {
                        "POSITION" : 0,
                        "TEXCOORD_0" : 1,
                        "NORMAL" : 2
                    },
                    "indices" : 3,
                    "material" : 0
                }
            ]
        }
    ],
    "accessors" : [
        {
            "bufferView" : 0,
            "componentType" : 5126,
            "count" : 4,
            "max" : [
                1,
                0,
                1
            ],
            "min" : [
                -1,
                0,
                -1
            ],
            "type" : "VEC3"
        },
        {
            "bufferView" : 1,
            "componentType" : 5126,
            "count" : 4,
            "type" : "VEC2"
        },
        {
            "bufferView" : 2,
            "componentType" : 5126,
            "count" : 4,
            "type" : "VEC3"
        },
        {
            "bufferView" : 3,
            "componentType" : 5123,
            "count" : 6,
            "type" : "SCALAR"
        }
    ],
    "bufferViews" : [
        {
            "buffer" : 0,
            "byteLength" : 48,
            "byteOffset" : 0,
            "target" : 34962
        },
        {
            "buffer" : 0,
            "byteLength" : 32,
            "byteOffset" : 48,
            "target" : 34962
        },
        {
            "buffer" : 0,
            "byteLength" : 48,
            "byteOffset" : 80,
            "target" : 34962
        },
        {
            "buffer" : 0,
            "byteLength" : 12,
            "byteOffset" : 128,
            "target" : 34963
        }
    ],
    "buffers" : [
        {
            "byteLength" : 140,
            "uri" : "data:application/octet-stream;base64,"
        }
    ]
}
