{
    "asset" : {
        "generator" : "Khronos glTF Blender I/O v3.3.27",
        "version" : "2.0"
    },
    "scene" : 0,
    "scenes" : [
        {
            "name" : "Scene",
            "nodes" : [
                0
            ]
        }
    ],
    "nodes" : [
        {
            "mesh" : 0,
            "name" : "Sphere.002",
            "scale" : [
                0.08173918724060059,
                0.08173918724060059,
                0.08173918724060059
            ],
            "translation" : [
                0.027384519577026367,
                3.772623300552368,
                -0.9566553235054016
            ]
        }
    ],
    "meshes" : [
        {
            "name" : "Sphere.002",
            "primitives" : [
                {
                    "attributes" : {
                        "POSITION" : 0,
                        "NORMAL" : 1,
                        "TEXCOORD_0" : 2
                    },
                    "indices" : 3
                }
            ]
        }
    ],
    "accessors" : [
        {
            "bufferView" : 0,
            "componentType" : 5126,
            "count" : 19840,
            "max" : [
                9.11420726776123,
                3.5920376777648926,
                1.000000238418579
            ],
            "min" : [
                -9.62939167022705,
                -3.9623255729675293,
                -1.0000009536743164
            ],
            "type" : "VEC3"
        },
        {
            "bufferView" : 1,
            "componentType" : 5126,
            "count" : 19840,
            "type" : "VEC3"
        },
        {
            "bufferView" : 2,
            "componentType" : 5126,
            "count" : 19840,
            "type" : "VEC2"
        },
        {
            "bufferView" : 3,
            "componentType" : 5123,
            "count" : 28800,
            "type" : "SCALAR"
        }
    ],
    "bufferViews" : [
        {
            "buffer" : 0,
            "byteLength" : 238080,
            "byteOffset" : 0,
            "target" : 34962
        },
        {
            "buffer" : 0,
            "byteLength" : 238080,
            "byteOffset" : 238080,
            "target" : 34962
        },
        {
            "buffer" : 0,
            "byteLength" : 158720,
            "byteOffset" : 476160,
            "target" : 34962
        },
        {
            "buffer" : 0,
            "byteLength" : 57600,
            "byteOffset" : 634880,
            "target" : 34963
        }
    ],
    "buffers" : [
        {
            "byteLength" : 692480,
            "uri" : "data:application/octet-stream;base64,"
        }
    ]
}
