{
    "asset" : {
        "generator" : "Khronos glTF Blender I/O v3.3.32",
        "version" : "2.0"
    },
    "scene" : 0,
    "scenes" : [
        {
            "name" : "Scene",
            "nodes" : [
                0,
                1,
                2,
                3,
                4
            ]
        }
    ],
    "nodes" : [
        {
            "mesh" : 0,
            "name" : "Gums",
            "rotation" : [
                0.8169034719467163,
                0,
                0,
                0.5767744183540344
            ],
            "scale" : [
                0.3853444457054138,
                0.38534438610076904,
                0.38534438610076904
            ],
            "translation" : [
                -0.05277225002646446,
                1.9044008255004883,
                -1.1547869443893433
            ]
        },
        {
            "mesh" : 1,
            "name" : "Teeth.001",
            "rotation" : [
                0.8169034719467163,
                0,
                0,
                0.5767744183540344
            ],
            "scale" : [
                0.3853444457054138,
                0.38534438610076904,
                0.38534438610076904
            ],
            "translation" : [
                -0.0009837597608566284,
                1.9187625646591187,
                -0.8116368055343628
            ]
        },
        {
            "mesh" : 2,
            "name" : "Gums.001",
            "rotation" : [
                0.5354901552200317,
                0,
                0,
                0.8445414900779724
            ],
            "scale" : [
                0.3853444457054138,
                0.38534441590309143,
                0.38534441590309143
            ],
            "translation" : [
                0.0003484897315502167,
                3.076630115509033,
                -1.095208764076233
            ]
        },
        {
            "mesh" : 3,
            "name" : "Teeth.002",
            "rotation" : [
                0.5684940218925476,
                0,
                0,
                0.8226873874664307
            ],
            "scale" : [
                0.3853444457054138,
                0.38534438610076904,
                0.38534438610076904
            ],
            "translation" : [
                -0.0009837597608566284,
                3.1867706775665283,
                -0.7113575339317322
            ]
        },
        {
            "mesh" : 4,
            "name" : "Text",
            "rotation" : [
                0.7071068286895752,
                0,
                0,
                0.7071068286895752
            ],
            "translation" : [
                -0.43112713098526,
                -1.1363272666931152,
                -0.1649361401796341
            ]
        }
    ],
    "materials" : [
        {
            "doubleSided" : true,
            "name" : "GumsMaterial",
            "pbrMetallicRoughness" : {
                "baseColorFactor" : [
                    0.6866853833198547,
                    0.046664878726005554,
                    0.09530749917030334,
                    1
                ],
                "metallicFactor" : 0,
                "roughnessFactor" : 0.5527864098548889
            }
        },
        {
            "doubleSided" : true,
            "name" : "Material.006",
            "pbrMetallicRoughness" : {
                "baseColorFactor" : [
                    0.8000000715255737,
                    0,
                    0.005807495675981045,
                    1
                ],
                "metallicFactor" : 0,
                "roughnessFactor" : 0.5
            }
        },
        {
            "doubleSided" : true,
            "name" : "TeethMaterial",
            "pbrMetallicRoughness" : {
                "metallicFactor" : 0,
                "roughnessFactor" : 0.5527864098548889
            }
        },
        {
            "doubleSided" : true,
            "name" : "Material.007",
            "pbrMetallicRoughness" : {
                "baseColorFactor" : [
                    0.21962133049964905,
                    0.8000000715255737,
                    0,
                    1
                ],
                "metallicFactor" : 0,
                "roughnessFactor" : 0.5
            }
        }
    ],
    "meshes" : [
        {
            "name" : "Mesh.001",
            "primitives" : [
                {
                    "attributes" : {
                        "POSITION" : 0,
                        "NORMAL" : 1,
                        "TEXCOORD_0" : 2
                    },
                    "indices" : 3,
                    "material" : 0
                },
                {
                    "attributes" : {
                        "POSITION" : 4,
                        "NORMAL" : 5,
                        "TEXCOORD_0" : 6
                    },
                    "indices" : 7,
                    "material" : 1
                }
            ]
        },
        {
            "name" : "Mesh.002",
            "primitives" : [
                {
                    "attributes" : {
                        "POSITION" : 8,
                        "NORMAL" : 9,
                        "TEXCOORD_0" : 10
                    },
                    "indices" : 11,
                    "material" : 2
                }
            ]
        },
        {
            "name" : "Mesh.003",
            "primitives" : [
                {
                    "attributes" : {
                        "POSITION" : 12,
                        "NORMAL" : 13,
                        "TEXCOORD_0" : 14
                    },
                    "indices" : 15,
                    "material" : 0
                }
            ]
        },
        {
            "name" : "Mesh.004",
            "primitives" : [
                {
                    "attributes" : {
                        "POSITION" : 16,
                        "NORMAL" : 17,
                        "TEXCOORD_0" : 18
                    },
                    "indices" : 19,
                    "material" : 2
                }
            ]
        },
        {
            "name" : "Text",
            "primitives" : [
                {
                    "attributes" : {
                        "POSITION" : 20,
                        "NORMAL" : 21,
                        "TEXCOORD_0" : 22
                    },
                    "indices" : 23,
                    "material" : 3
                }
            ]
        }
    ],
    "accessors" : [
        {
            "bufferView" : 0,
            "componentType" : 5126,
            "count" : 2036,
            "max" : [
                4.301876544952393,
                3.823284149169922,
                2.8148860931396484
            ],
            "min" : [
                -4.276605606079102,
                -7.494272708892822,
                -1.5489482879638672
            ],
            "type" : "VEC3"
        },
        {
            "bufferView" : 1,
            "componentType" : 5126,
            "count" : 2036,
            "type" : "VEC3"
        },
        {
            "bufferView" : 2,
            "componentType" : 5126,
            "count" : 2036,
            "type" : "VEC2"
        },
        {
            "bufferView" : 3,
            "componentType" : 5123,
            "count" : 11190,
            "type" : "SCALAR"
        },
        {
            "bufferView" : 4,
            "componentType" : 5126,
            "count" : 274,
            "max" : [
                2.5206360816955566,
                3.4502792358398438,
                2.439422607421875
            ],
            "min" : [
                -2.3906009197235107,
                -7.459436416625977,
                -0.6373882293701172
            ],
            "type" : "VEC3"
        },
        {
            "bufferView" : 5,
            "componentType" : 5126,
            "count" : 274,
            "type" : "VEC3"
        },
        {
            "bufferView" : 6,
            "componentType" : 5126,
            "count" : 274,
            "type" : "VEC2"
        },
        {
            "bufferView" : 7,
            "componentType" : 5123,
            "count" : 1314,
            "type" : "SCALAR"
        },
        {
            "bufferView" : 8,
            "componentType" : 5126,
            "count" : 2548,
            "max" : [
                4.040764808654785,
                2.9271955490112305,
                1.7268428802490234
            ],
            "min" : [
                -4.0460734367370605,
                -4.962427616119385,
                -0.9758949279785156
            ],
            "type" : "VEC3"
        },
        {
            "bufferView" : 9,
            "componentType" : 5126,
            "count" : 2548,
            "type" : "VEC3"
        },
        {
            "bufferView" : 10,
            "componentType" : 5126,
            "count" : 2548,
            "type" : "VEC2"
        },
        {
            "bufferView" : 11,
            "componentType" : 5123,
            "count" : 13152,
            "type" : "SCALAR"
        },
        {
            "bufferView" : 12,
            "componentType" : 5126,
            "count" : 1459,
            "max" : [
                4.375820159912109,
                4.723614692687988,
                -0.2449932098388672
            ],
            "min" : [
                -4.37241268157959,
                -4.74560022354126,
                -2.435556411743164
            ],
            "type" : "VEC3"
        },
        {
            "bufferView" : 13,
            "componentType" : 5126,
            "count" : 1459,
            "type" : "VEC3"
        },
        {
            "bufferView" : 14,
            "componentType" : 5126,
            "count" : 1459,
            "type" : "VEC2"
        },
        {
            "bufferView" : 15,
            "componentType" : 5123,
            "count" : 8280,
            "type" : "SCALAR"
        },
        {
            "bufferView" : 16,
            "componentType" : 5126,
            "count" : 2488,
            "max" : [
                4.0944318771362305,
                3.3408937454223633,
                0.6656780242919922
            ],
            "min" : [
                -4.092746257781982,
                -4.689071178436279,
                -1.8252449035644531
            ],
            "type" : "VEC3"
        },
        {
            "bufferView" : 17,
            "componentType" : 5126,
            "count" : 2488,
            "type" : "VEC3"
        },
        {
            "bufferView" : 18,
            "componentType" : 5126,
            "count" : 2488,
            "type" : "VEC2"
        },
        {
            "bufferView" : 19,
            "componentType" : 5123,
            "count" : 12768,
            "type" : "SCALAR"
        },
        {
            "bufferView" : 20,
            "componentType" : 5126,
            "count" : 4253,
            "max" : [
                1.7920000553131104,
                0.09999999403953552,
                0.5665000081062317
            ],
            "min" : [
                -0.9660000205039978,
                -0.09999999403953552,
                -0.2055000364780426
            ],
            "type" : "VEC3"
        },
        {
            "bufferView" : 21,
            "componentType" : 5126,
            "count" : 4253,
            "type" : "VEC3"
        },
        {
            "bufferView" : 22,
            "componentType" : 5126,
            "count" : 4253,
            "type" : "VEC2"
        },
        {
            "bufferView" : 23,
            "componentType" : 5123,
            "count" : 7440,
            "type" : "SCALAR"
        }
    ],
    "bufferViews" : [
        {
            "buffer" : 0,
            "byteLength" : 24432,
            "byteOffset" : 0,
            "target" : 34962
        },
        {
            "buffer" : 0,
            "byteLength" : 24432,
            "byteOffset" : 24432,
            "target" : 34962
        },
        {
            "buffer" : 0,
            "byteLength" : 16288,
            "byteOffset" : 48864,
            "target" : 34962
        },
        {
            "buffer" : 0,
            "byteLength" : 22380,
            "byteOffset" : 65152,
            "target" : 34963
        },
        {
            "buffer" : 0,
            "byteLength" : 3288,
            "byteOffset" : 87532,
            "target" : 34962
        },
        {
            "buffer" : 0,
            "byteLength" : 3288,
            "byteOffset" : 90820,
            "target" : 34962
        },
        {
            "buffer" : 0,
            "byteLength" : 2192,
            "byteOffset" : 94108,
            "target" : 34962
        },
        {
            "buffer" : 0,
            "byteLength" : 2628,
            "byteOffset" : 96300,
            "target" : 34963
        },
        {
            "buffer" : 0,
            "byteLength" : 30576,
            "byteOffset" : 98928,
            "target" : 34962
        },
        {
            "buffer" : 0,
            "byteLength" : 30576,
            "byteOffset" : 129504,
            "target" : 34962
        },
        {
            "buffer" : 0,
            "byteLength" : 20384,
            "byteOffset" : 160080,
            "target" : 34962
        },
        {
            "buffer" : 0,
            "byteLength" : 26304,
            "byteOffset" : 180464,
            "target" : 34963
        },
        {
            "buffer" : 0,
            "byteLength" : 17508,
            "byteOffset" : 206768,
            "target" : 34962
        },
        {
            "buffer" : 0,
            "byteLength" : 17508,
            "byteOffset" : 224276,
            "target" : 34962
        },
        {
            "buffer" : 0,
            "byteLength" : 11672,
            "byteOffset" : 241784,
            "target" : 34962
        },
        {
            "buffer" : 0,
            "byteLength" : 16560,
            "byteOffset" : 253456,
            "target" : 34963
        },
        {
            "buffer" : 0,
            "byteLength" : 29856,
            "byteOffset" : 270016,
            "target" : 34962
        },
        {
            "buffer" : 0,
            "byteLength" : 29856,
            "byteOffset" : 299872,
            "target" : 34962
        },
        {
            "buffer" : 0,
            "byteLength" : 19904,
            "byteOffset" : 329728,
            "target" : 34962
        },
        {
            "buffer" : 0,
            "byteLength" : 25536,
            "byteOffset" : 349632,
            "target" : 34963
        },
        {
            "buffer" : 0,
            "byteLength" : 51036,
            "byteOffset" : 375168,
            "target" : 34962
        },
        {
            "buffer" : 0,
            "byteLength" : 51036,
            "byteOffset" : 426204,
            "target" : 34962
        },
        {
            "buffer" : 0,
            "byteLength" : 34024,
            "byteOffset" : 477240,
            "target" : 34962
        },
        {
            "buffer" : 0,
            "byteLength" : 14880,
            "byteOffset" : 511264,
            "target" : 34963
        }
    ],
    "buffers" : [
        {
            "byteLength" : 526144,
            "uri" : "data:application/octet-stream;base64,"
        }
    ]
}
